HIERARCHY
ROOT Hips
{
	OFFSET 0.000000 0.000000 0.000000
	CHANNELS 6 Xposition Yposition Zposition Xrotation Yrotation Zrotation
	JOINT LeftUpLeg_virtual
	{
		OFFSET 0.000000 0.000000 0.000000
		CHANNELS 3 Xrotation Yrotation Zrotation
		JOINT LeftUpLeg
		{
			OFFSET 15.427100 -6.655098 0.678600
			CHANNELS 3 Xrotation Yrotation Zrotation
			JOINT LeftLeg
			{
				OFFSET 4.081073 -39.591068 13.024000
				CHANNELS 3 Xrotation Yrotation Zrotation
				JOINT LeftFoot
				{
					OFFSET -4.081074 -37.707932 -15.979700
					CHANNELS 3 Xrotation Yrotation Zrotation
					JOINT LeftToeBase
					{
						OFFSET 5.346399 -15.068900 20.645000
						CHANNELS 3 Xrotation Yrotation Zrotation
						JOINT LeftToe_End
						{
							OFFSET 2.754700 0.931300 11.300900
							CHANNELS 3 Xrotation Yrotation Zrotation
							End Site
							{
								OFFSET 0 0 0
							}
						}
					}
				}
			}
		}
	}
	JOINT RightUpLeg_virtual
	{
		OFFSET 0.000000 0.000000 0.000000
		CHANNELS 3 Xrotation Yrotation Zrotation
		JOINT RightUpLeg
		{
			OFFSET -15.569500 -6.655098 0.678600
			CHANNELS 3 Xrotation Yrotation Zrotation
			JOINT RightLeg
			{
				OFFSET -4.081825 -39.591045 13.023800
				CHANNELS 3 Xrotation Yrotation Zrotation
				JOINT RightFoot
				{
					OFFSET 4.081824 -37.707954 -15.979600
					CHANNELS 3 Xrotation Yrotation Zrotation
					JOINT RightToeBase
					{
						OFFSET -5.346400 -15.068900 20.645000
						CHANNELS 3 Xrotation Yrotation Zrotation
						JOINT RightToe_End
						{
							OFFSET -2.754700 0.931300 11.300900
							CHANNELS 3 Xrotation Yrotation Zrotation
							End Site
							{
								OFFSET 0 0 0
							}
						}
					}
				}
			}
		}
	}
	JOINT Spine_virtual
	{
		OFFSET 0.000000 0.000000 0.000000
		CHANNELS 3 Xrotation Yrotation Zrotation
		JOINT Spine
		{
			OFFSET -0.279200 12.230698 -2.892100
			CHANNELS 3 Xrotation Yrotation Zrotation
			JOINT Spine1
			{
				OFFSET -0.232667 10.192268 -1.242267
				CHANNELS 3 Xrotation Yrotation Zrotation
				JOINT Spine1_split
				{
					OFFSET -0.232667 10.192268 -1.242267
					CHANNELS 3 Xrotation Yrotation Zrotation
					JOINT Spine2
					{
						OFFSET -0.232667 10.192268 -1.242267
						CHANNELS 3 Xrotation Yrotation Zrotation
						JOINT Neck_virtual
						{
							OFFSET 0.000000 0.000000 0.000000
							CHANNELS 3 Xrotation Yrotation Zrotation
							JOINT Neck
							{
								OFFSET -0.418800 17.814194 8.416900
								CHANNELS 3 Xrotation Yrotation Zrotation
								JOINT Head
								{
									OFFSET 0.000000 7.031097 3.806800
									CHANNELS 3 Xrotation Yrotation Zrotation
									JOINT HeadTop_End
									{
										OFFSET 0.000000 24.646606 12.978600
										CHANNELS 3 Xrotation Yrotation Zrotation
										End Site
										{
											OFFSET 0 0 0
										}
									}
								}
							}
						}
						JOINT LeftShoulder_virtual
						{
							OFFSET 0.000000 0.000000 0.000000
							CHANNELS 3 Xrotation Yrotation Zrotation
							JOINT LeftShoulder
							{
								OFFSET 8.476499 7.247704 -3.868750
								CHANNELS 3 Xrotation Yrotation Zrotation
								JOINT LeftShoulder_split
								{
									OFFSET 8.476499 7.247704 -3.868750
									CHANNELS 3 Xrotation Yrotation Zrotation
									JOINT LeftArm
									{
										OFFSET 9.308998 -2.777710 0.208600
										CHANNELS 3 Xrotation Yrotation Zrotation
										JOINT LeftForeArm
										{
											OFFSET 29.972298 0.000000 0.000000
											CHANNELS 3 Xrotation Yrotation Zrotation
											JOINT LeftHand
											{
												OFFSET 26.026505 0.000000 0.000000
												CHANNELS 3 Xrotation Yrotation Zrotation
												End Site
												{
													OFFSET 0 0 0
												}
											}
										}
									}
								}
							}
						}
						JOINT RightShoulder_virtual
						{
							OFFSET 0.000000 0.000000 0.000000
							CHANNELS 3 Xrotation Yrotation Zrotation
							JOINT RightShoulder
							{
								OFFSET -7.570500 7.247704 -3.868750
								CHANNELS 3 Xrotation Yrotation Zrotation
								JOINT RightShoulder_split
								{
									OFFSET -7.570500 7.247704 -3.868750
									CHANNELS 3 Xrotation Yrotation Zrotation
									JOINT RightArm
									{
										OFFSET -9.308998 -2.777710 0.208500
										CHANNELS 3 Xrotation Yrotation Zrotation
										JOINT RightForeArm
										{
											OFFSET -29.972300 0.000000 0.000000
											CHANNELS 3 Xrotation Yrotation Zrotation
											JOINT RightHand
											{
												OFFSET -26.026505 0.000000 0.000000
												CHANNELS 3 Xrotation Yrotation Zrotation
												End Site
												{
													OFFSET 0 0 0
												}
											}
										}
									}
								}
							}
						}
					}
				}
			}
		}
	}
}
MOTION
Frames: 11
Frame Time: 0.03333333
11.099365 80.738144 75.857582 0.000000 0.000000 0.000000 163.151923 51.012272 -175.277134 -44.539278 2.270309 22.891343 27.786927 -31.819587 -2.103163 -0.227944 2.646059 -17.161757 1.251200 1.213188 -7.229019 0.000000 0.000000 0.000000 165.653521 46.447824 -179.484162 -21.325862 -31.357412 -29.261876 35.136839 -4.296764 8.467680 -14.485535 -5.506684 15.607897 5.250717 0.602823 1.079548 0.000000 0.000000 0.000000 165.083186 51.516039 -177.001047 16.813189 4.824079 -1.744265 10.700015 13.707824 -12.065239 0.645940 -5.290702 1.388707 0.000000 0.000000 0.000000 3.822493 13.067355 -10.264051 5.800810 3.841947 6.317646 -4.106048 9.386481 -7.521536 0.000000 0.000000 0.000000 2.517213 13.737277 -11.216016 0.940872 19.497135 -5.199909 -6.706615 -2.269108 -0.042043 21.407775 34.104302 -66.931851 -56.644999 -27.228645 -29.083570 0.000000 0.000000 0.000000 2.430228 12.980952 -10.971302 5.620574 14.060913 2.081195 -8.116299 -3.507618 0.101986 -56.089852 32.110939 69.534454 34.797942 29.931941 0.198656 0.000000 0.000000 0.000000 
10.550146 80.903915 73.522453 0.000000 0.000000 0.000000 161.520737 55.970675 -174.191885 -43.230460 0.522530 25.318791 30.613437 -30.655733 -2.151603 -2.168368 3.522242 -16.456217 2.318916 1.053416 -7.831013 0.000000 0.000000 0.000000 164.439810 50.923404 -178.655209 -23.390142 -30.067097 -28.126314 34.520264 -2.560037 7.517415 -11.180370 -3.913075 15.803333 3.364431 0.808212 0.965200 0.000000 0.000000 0.000000 163.514155 56.382713 -176.049383 16.585245 5.039013 -0.816413 10.279201 13.075274 -12.179944 0.343929 -5.271276 1.462034 0.000000 0.000000 0.000000 3.544606 12.383687 -10.314257 4.612183 4.277635 5.416224 -2.889243 8.662951 -7.131065 0.000000 0.000000 0.000000 2.137286 13.074307 -11.304689 1.389197 18.011707 -8.114838 -6.864982 -1.816072 0.846933 16.063418 31.406753 -59.913429 -51.292641 -28.758949 -28.535084 0.000000 0.000000 0.000000 2.080288 12.290189 -10.997630 5.463286 13.324736 2.450433 -9.828609 -2.955836 0.284868 -48.492677 28.939744 66.796368 34.710178 37.377053 -0.437337 0.000000 0.000000 0.000000 
9.857590 80.782021 70.989540 0.000000 0.000000 0.000000 159.713756 61.140739 -172.820657 -41.536306 -1.294144 27.019851 34.245537 -28.944207 -1.694671 -4.941651 4.729225 -15.375154 3.280237 1.029029 -8.271141 0.000000 0.000000 0.000000 162.958068 55.664635 -177.300865 -25.168608 -27.723511 -27.019368 33.922442 -0.401786 6.205024 -8.252591 -2.198339 17.747195 0.585353 0.795613 1.055035 0.000000 0.000000 0.000000 161.883352 61.553275 -175.077802 16.380289 5.040149 -0.240672 9.705798 12.229510 -12.274623 0.187622 -4.932232 1.393122 0.000000 0.000000 0.000000 3.114184 11.601838 -10.386075 3.356203 4.593431 5.376151 -2.091941 7.861557 -6.201506 0.000000 0.000000 0.000000 1.545053 12.298470 -11.337317 1.562950 15.636309 -10.606627 -7.062869 -1.405868 1.540837 10.013454 28.019415 -51.220155 -45.090966 -30.491406 -27.547070 0.000000 0.000000 0.000000 1.420343 11.461037 -10.959863 5.193995 11.939350 2.728969 -11.544966 -2.275527 -0.198981 -40.723985 24.539999 62.628129 34.401730 48.024590 -0.874303 0.000000 0.000000 0.000000 
9.072179 80.456337 68.008797 0.000000 0.000000 0.000000 157.280474 66.159289 -170.482328 -39.765201 -2.859077 27.781634 37.818525 -26.582495 -1.027129 -8.409824 5.875569 -13.959585 3.101651 1.190843 -8.211825 0.000000 0.000000 0.000000 160.907919 60.594071 -175.003476 -26.325847 -24.439815 -25.881369 33.570376 1.818119 4.598284 -6.918534 -0.874248 20.337720 -1.863599 0.592565 1.434751 0.000000 0.000000 0.000000 159.730326 66.738311 -173.339150 16.214102 4.712197 -0.019437 8.932524 11.142315 -12.313897 0.246488 -4.225698 1.513988 0.000000 0.000000 0.000000 2.550355 10.672918 -10.468156 2.202725 4.699483 5.921322 -2.298282 6.817831 -4.698315 0.000000 0.000000 0.000000 0.682999 11.376203 -11.284818 1.403510 12.689015 -12.078799 -7.090316 -0.932747 2.046547 3.307256 23.613357 -41.798104 -37.891349 -32.389747 -25.652369 0.000000 0.000000 0.000000 0.455646 10.474426 -10.861521 4.844885 10.037930 2.837714 -12.698911 -1.034308 -1.114801 -34.073468 18.929084 57.731368 33.389735 61.053169 -0.643144 0.000000 0.000000 0.000000 
8.336704 80.252701 64.616913 0.000000 0.000000 0.000000 153.040921 70.958678 -165.898916 -38.229645 -3.971116 27.724474 40.706257 -23.855831 -0.493569 -11.938559 6.319253 -12.432853 1.684369 1.466880 -7.620789 0.000000 0.000000 0.000000 157.607776 65.824138 -171.104968 -26.647344 -20.574695 -24.759741 33.617740 3.362158 2.962059 -7.969266 -0.677412 21.747099 -1.954844 0.292575 2.276647 0.000000 0.000000 0.000000 156.054660 71.748351 -169.663798 16.062978 4.027359 -0.061252 7.979801 9.829610 -12.241967 0.357776 -3.683966 1.533435 0.000000 0.000000 0.000000 1.822583 9.544530 -10.508108 1.329611 4.655141 6.660821 -3.637655 5.410941 -2.760584 0.000000 0.000000 0.000000 -0.349316 10.238101 -11.116681 0.997844 9.534793 -12.355886 -7.216426 -0.619207 2.066999 -3.116937 17.832931 -32.910027 -29.069999 -33.867923 -22.012030 0.000000 0.000000 0.000000 -0.711278 9.261730 -10.718141 4.411673 7.760084 2.754890 -13.052139 0.316624 -2.336145 -29.125641 12.833465 52.836165 30.025744 74.903761 1.798670 0.000000 0.000000 0.000000 
7.640748 80.431740 60.841644 0.000000 0.000000 0.000000 145.089296 75.358925 -157.294913 -37.201175 -4.556087 27.053281 42.701598 -20.875853 -0.272566 -14.681464 5.888161 -11.052803 -0.111819 1.734130 -6.668110 0.000000 0.000000 0.000000 152.054832 71.007214 -164.776852 -26.521423 -16.636048 -23.877793 33.581701 3.727611 1.518093 -10.830528 -1.791775 21.204493 0.805033 0.049798 3.517204 0.000000 0.000000 0.000000 148.605437 76.472990 -161.858203 15.804730 3.024414 -0.245764 6.879944 8.294906 -11.986615 0.536917 -2.917947 1.242489 0.000000 0.000000 0.000000 0.937548 8.211000 -10.454650 0.975082 4.603715 7.163740 -5.867924 3.672975 -0.676829 0.000000 0.000000 0.000000 -1.427621 8.851110 -10.826860 0.499171 6.321921 -11.561071 -7.041554 -0.509964 1.578728 -8.361277 10.531013 -25.854578 -18.806318 -33.855509 -16.536120 0.000000 0.000000 0.000000 -1.862133 7.813380 -10.504092 4.005092 5.386487 2.524055 -12.785759 0.717708 -3.530859 -25.582967 7.298786 48.367018 -6.961676 87.523533 37.771991 0.000000 0.000000 0.000000 
7.000170 80.986824 56.430828 0.000000 0.000000 0.000000 129.679433 79.070382 -141.024514 -36.777481 -4.630276 25.870897 44.018271 -17.555654 -0.352955 -16.628094 4.969117 -9.389898 -1.088523 1.875656 -5.807288 0.000000 0.000000 0.000000 141.867182 75.925626 -153.756369 -26.020265 -13.001158 -23.203351 32.946688 3.101324 0.464140 -13.950532 -3.454850 19.539585 4.379019 -0.064345 4.840813 0.000000 0.000000 0.000000 132.657546 80.474491 -145.277946 15.496950 1.864061 -0.446976 5.781385 6.662914 -11.523841 0.670462 -2.180003 0.827258 0.000000 0.000000 0.000000 -0.007489 6.743068 -10.213764 1.265178 4.688659 7.123717 -8.475288 1.880524 1.185104 0.000000 0.000000 0.000000 -2.370455 7.246018 -10.388307 0.042923 3.424089 -10.157282 -6.321549 -0.533301 0.911980 -12.432638 1.902803 -21.397374 -8.321038 -32.109337 -10.249775 0.000000 0.000000 0.000000 -2.844052 6.244639 -10.140682 3.665043 3.350002 2.327099 -11.653652 -0.046480 -4.368850 -23.022520 3.032603 44.727712 -134.573223 80.765942 164.242158 0.000000 0.000000 0.000000 
6.504258 81.935509 51.519062 0.000000 0.000000 0.000000 100.781422 81.313361 -111.215465 -36.493359 -3.893068 24.380639 44.730496 -13.707836 -0.706587 -18.147847 4.116280 -7.438538 -0.667238 1.954144 -5.365280 0.000000 0.000000 0.000000 121.431228 79.953921 -132.489537 -25.079657 -10.177951 -22.688046 31.462734 1.855410 -0.231417 -15.727182 -4.930353 18.236327 6.265032 -0.178286 5.927797 0.000000 0.000000 0.000000 98.798092 82.847524 -110.713022 15.113428 0.759084 -0.587240 4.845463 5.069736 -10.845291 0.984724 -1.730084 0.386197 0.000000 0.000000 0.000000 -0.934118 5.281663 -9.731372 2.188120 4.958315 6.516801 -10.825220 0.405052 2.616150 0.000000 0.000000 0.000000 -3.069928 5.574496 -9.779636 -0.346465 1.043891 -8.441704 -5.440954 -0.286243 -0.051480 -15.775782 -7.188828 -19.641597 0.639442 -29.458275 -4.534587 0.000000 0.000000 0.000000 -3.560696 4.691335 -9.587762 3.445559 2.039529 2.259568 -10.431433 -1.752774 -4.697112 -21.173252 0.454716 41.964290 -140.421654 73.003548 168.822114 0.000000 0.000000 0.000000 
6.230199 83.084656 46.249844 0.000000 0.000000 0.000000 63.586835 80.487209 -73.171461 -35.877594 -2.162532 22.827028 44.783737 -9.086680 -1.385539 -19.500170 3.738398 -5.528934 0.215836 2.051963 -5.177610 0.000000 0.000000 0.000000 83.090761 81.593795 -93.412146 -23.483582 -8.710943 -22.069782 28.811787 0.272468 -0.730318 -15.435276 -5.819870 18.416869 5.593367 -0.426328 6.596007 0.000000 0.000000 0.000000 56.456182 81.540137 -67.703137 14.698489 -0.085449 -0.648189 4.177362 3.692254 -9.989100 1.239313 -1.253348 0.031912 0.000000 0.000000 0.000000 -1.719052 3.985314 -9.007410 3.583841 5.355152 5.496398 -12.486905 -0.414635 3.490170 0.000000 0.000000 0.000000 -3.478751 4.056656 -9.001339 -0.646410 -0.702326 -6.752797 -4.526277 0.191992 -0.649354 -19.034699 -15.242607 -20.273287 6.911969 -27.081538 -0.230429 0.000000 0.000000 0.000000 -3.991254 3.368503 -8.828934 3.358674 1.647492 2.320388 -9.521359 -3.538595 -4.381431 -20.129286 -0.149771 40.081476 -142.817425 68.529412 169.812751 0.000000 0.000000 0.000000 
6.360106 84.182060 40.800697 0.000000 0.000000 0.000000 37.173684 76.445875 -46.038695 -34.689650 0.477794 21.301833 44.439372 -3.879854 -2.198028 -20.293694 3.953551 -4.072565 0.243391 2.188852 -4.957801 0.000000 0.000000 0.000000 44.758595 78.775263 -54.403772 -20.972180 -8.579603 -21.153822 25.335407 -1.450446 -1.225607 -14.204049 -5.752846 19.537922 3.239379 -0.763842 6.889206 0.000000 0.000000 0.000000 30.866448 76.911413 -41.493416 14.309263 -0.528924 -0.621990 3.839930 2.708518 -9.024539 1.223227 -1.088386 0.119400 0.000000 0.000000 0.000000 -2.338905 3.035750 -8.096411 5.183363 5.747837 4.372189 -13.247132 -0.439571 3.888930 0.000000 0.000000 0.000000 -3.589609 2.899629 -8.090078 -0.882244 -1.842990 -5.206733 -3.795347 0.968516 -0.787189 -22.341451 -20.908435 -22.877746 10.228231 -26.471226 2.533363 0.000000 0.000000 0.000000 -4.178525 2.447439 -7.921022 3.332864 2.130611 2.493006 -8.727425 -4.383186 -3.968326 -20.169294 1.146756 39.061531 -144.271968 67.410156 169.680204 0.000000 0.000000 0.000000 
6.922190 85.051819 35.693340 0.000000 0.000000 0.000000 21.930728 70.036650 -30.150415 -32.905591 4.000607 19.957063 44.199066 1.678871 -3.067540 -20.319290 4.629309 -3.086003 -0.441633 2.278490 -4.628193 0.000000 0.000000 0.000000 24.025600 72.565508 -33.062825 -17.536827 -9.684928 -20.034956 22.203960 -3.495378 -1.819594 -13.211576 -4.811070 19.941482 1.051350 -0.998883 6.998289 0.000000 0.000000 0.000000 17.427294 70.333764 -27.374674 13.951225 -0.547780 -0.545772 3.795883 2.183985 -8.009324 1.100743 -1.117277 0.243251 0.000000 0.000000 0.000000 -2.808130 2.499522 -7.093805 6.666430 6.057159 3.491536 -13.161140 0.119242 3.897971 0.000000 0.000000 0.000000 -3.499608 2.228691 -7.114848 -1.044849 -2.477925 -3.932988 -3.247128 1.733425 -0.800858 -24.671658 -23.633216 -26.543105 10.862000 -28.532323 3.868283 0.000000 0.000000 0.000000 -4.188358 1.996772 -6.937015 3.319174 3.162330 2.648955 -8.037545 -4.345080 -3.275760 -21.290360 3.997416 38.770261 -145.074885 69.114206 168.764426 0.000000 0.000000 0.000000 
